<svg width="280" height="146" viewBox="0 0 280 146" fill="none" xmlns="http://www.w3.org/2000/svg">
<path d="M21.4876 77.3261C16.183 77.3261 11.9666 75.898 8.83826 73.0417C5.77795 70.1174 4.24779 66.309 4.24779 61.6165C4.24779 56.9921 5.84596 53.3197 9.04228 50.5994C12.3066 47.8111 16.9311 46.179 22.9157 45.7029L38.0132 44.4788V43.3567C38.0132 41.0444 37.5712 39.2083 36.6871 37.8481C35.871 36.42 34.6809 35.3999 33.1167 34.7878C31.5526 34.1077 29.7164 33.7677 27.6082 33.7677C23.9358 33.7677 21.1135 34.5158 19.1413 36.0119C17.1691 37.4401 16.183 39.4803 16.183 42.1326H5.57393C5.57393 38.4602 6.49202 35.2979 8.32821 32.6456C10.2324 29.9253 12.8847 27.8171 16.285 26.3209C19.7534 24.8248 23.7318 24.0767 28.2202 24.0767C32.7767 24.0767 36.6871 24.8928 39.9514 26.525C43.2158 28.0891 45.732 30.4694 47.5002 33.6657C49.2684 36.794 50.1525 40.7044 50.1525 45.3969V76H39.2374L38.3193 68.5532C37.2312 71.1375 35.1229 73.2457 31.9946 74.8779C28.9343 76.5101 25.432 77.3261 21.4876 77.3261ZM25.466 67.9412C29.3424 67.9412 32.4027 66.8531 34.6469 64.6768C36.9591 62.5006 38.1152 59.4743 38.1152 55.5979V52.9457L27.6082 53.7617C23.7318 54.1018 20.9775 54.9179 19.3453 56.21C17.7132 57.4341 16.8971 59.0663 16.8971 61.1065C16.8971 63.3507 17.6452 65.0509 19.1413 66.207C20.6375 67.3631 22.7457 67.9412 25.466 67.9412ZM94.0018 25.4028V36.93H89.4113C84.8549 36.93 81.2845 38.1541 78.7002 40.6024C76.116 42.9826 74.8238 46.621 74.8238 51.5175V76H62.3786V25.7089H74.1098L75.1299 36.1139H73.9057C74.5858 32.7816 76.184 30.0613 78.7002 27.9531C81.2165 25.8449 84.4808 24.7908 88.4932 24.7908C89.3773 24.7908 90.2614 24.8248 91.1455 24.8928C92.0296 24.9608 92.9817 25.1308 94.0018 25.4028ZM102.426 76V25.6069H114.871V76H102.426ZM108.546 15.5078C106.438 15.5078 104.636 14.7938 103.14 13.3656C101.712 11.8695 100.997 10.0673 100.997 7.95907C100.997 5.85086 101.712 4.08268 103.14 2.65453C104.636 1.22639 106.438 0.512315 108.546 0.512315C110.654 0.512315 112.423 1.22639 113.851 2.65453C115.347 4.08268 116.095 5.85086 116.095 7.95907C116.095 10.0673 115.347 11.8695 113.851 13.3656C112.423 14.7938 110.654 15.5078 108.546 15.5078ZM135.38 17.9561C135.38 6.63294 141.602 2.96056 147.825 2.96056C151.803 2.96056 155.272 3.77665 157.924 5.10278L157.822 11.9375C155.578 10.8154 153.334 10.1013 150.579 10.1013C147.723 10.1013 144.255 11.7335 144.255 17.242V23.5667H159.862L159.25 30.6054H140.684V31.4215C146.601 32.6456 147.009 43.2547 147.111 68.9613H160.372L160.984 76H124.873V68.9613H138.848C138.44 49.4773 137.216 35.1958 135.074 30.6054H124.771L124.159 23.5667H135.38V17.9561ZM204.838 25.6069H217.284V76H205.757L204.838 69.2673C203.342 71.6476 201.098 73.5858 198.106 75.0819C195.113 76.5781 191.917 77.3261 188.517 77.3261C182.736 77.3261 178.214 75.4899 174.949 71.8176C171.685 68.1452 170.053 63.2487 170.053 57.1281V25.6069H182.498V52.7416C182.498 57.5021 183.416 60.9365 185.252 63.0447C187.089 65.1529 189.741 66.207 193.209 66.207C197.154 66.207 200.078 65.0509 201.982 62.7386C203.886 60.3584 204.838 56.788 204.838 52.0276V25.6069ZM242.685 76H230.342V0.104273H242.685V76ZM264.105 77.2241C261.861 77.2241 259.922 76.442 258.29 74.8779C256.658 73.3137 255.842 71.4095 255.842 69.1653C255.842 66.9211 256.658 65.0169 258.29 63.4527C259.922 61.8206 261.861 61.0045 264.105 61.0045C266.349 61.0045 268.287 61.8206 269.919 63.4527C271.552 65.0169 272.368 66.9211 272.368 69.1653C272.368 71.4095 271.552 73.3137 269.919 74.8779C268.287 76.442 266.349 77.2241 264.105 77.2241Z" fill="url(#paint0_radial_4_2)"/>
<path d="M65.9873 143.892L49.6657 93.4989H62.621L69.2517 115.125C69.7957 117.097 70.3398 119.172 70.8838 121.348C71.4279 123.524 71.9039 125.802 72.312 128.182C72.652 126.55 72.9581 125.054 73.2301 123.694C73.5701 122.334 73.9442 121.008 74.3522 119.716C74.7602 118.355 75.2363 116.825 75.7803 115.125L82.7171 93.4989H95.3663L102.099 115.125C102.235 115.601 102.439 116.417 102.711 117.573C103.051 118.661 103.391 119.852 103.731 121.144C104.071 122.436 104.377 123.728 104.649 125.02C104.989 126.244 105.227 127.298 105.363 128.182C105.635 126.89 105.975 125.428 106.383 123.796C106.791 122.164 107.2 120.6 107.608 119.104C108.084 117.539 108.458 116.213 108.73 115.125L115.462 93.4989H128.622L111.178 143.892H99.5488L92.6121 122.062C91.592 118.729 90.7759 115.907 90.1638 113.595C89.5517 111.215 89.1437 109.379 88.9397 108.086C88.7357 109.311 88.3616 110.943 87.8176 112.983C87.2735 115.023 86.3554 118.117 85.0633 122.266L78.1266 143.892H65.9873ZM130.809 118.593C130.809 113.357 131.965 108.766 134.277 104.822C136.589 100.81 139.785 97.6813 143.866 95.4371C147.946 93.1929 152.571 92.0708 157.739 92.0708C162.976 92.0708 167.6 93.1929 171.613 95.4371C175.693 97.6813 178.889 100.81 181.202 104.822C183.514 108.766 184.67 113.357 184.67 118.593C184.67 123.83 183.514 128.454 181.202 132.467C178.889 136.411 175.693 139.506 171.613 141.75C167.6 143.994 162.976 145.116 157.739 145.116C152.571 145.116 147.946 143.994 143.866 141.75C139.785 139.506 136.589 136.411 134.277 132.467C131.965 128.454 130.809 123.83 130.809 118.593ZM143.254 118.593C143.254 121.654 143.866 124.34 145.09 126.652C146.382 128.965 148.082 130.767 150.191 132.059C152.367 133.351 154.883 133.997 157.739 133.997C160.596 133.997 163.112 133.351 165.288 132.059C167.464 130.767 169.164 128.965 170.389 126.652C171.613 124.34 172.225 121.654 172.225 118.593C172.225 115.465 171.613 112.779 170.389 110.535C169.164 108.222 167.464 106.42 165.288 105.128C163.112 103.836 160.596 103.19 157.739 103.19C154.883 103.19 152.367 103.836 150.191 105.128C148.082 106.42 146.382 108.222 145.09 110.535C143.866 112.779 143.254 115.465 143.254 118.593ZM194.127 143.892V91.8667L200.655 91.0506L202.492 97.7833H203.41C206.164 93.6009 211.162 89.8265 219.017 89.8265C221.262 89.8265 222.996 90.1326 222.996 90.1326L222.588 98.1914C222.384 98.0894 218.609 97.8853 215.855 97.8853C206.062 97.8853 203.002 102.782 203.002 107.678V143.892H194.127ZM243.642 143.892H231.299V67.9963H243.642V114.615L263.228 93.4989H278.836L259.658 113.493L278.428 143.892H264.147L250.987 122.674L243.642 130.325V143.892Z" fill="url(#paint1_radial_4_2)"/>
<defs>
<radialGradient id="paint0_radial_4_2" cx="0" cy="0" r="1" gradientUnits="userSpaceOnUse" gradientTransform="translate(139.5 37.5) rotate(90) scale(37.5 139.5)">
<stop stop-color="#F6631E"/>
<stop offset="1" stop-color="#6230D1"/>
</radialGradient>
<radialGradient id="paint1_radial_4_2" cx="0" cy="0" r="1" gradientUnits="userSpaceOnUse" gradientTransform="translate(163.559 105.392) rotate(90) scale(37.5 116)">
<stop stop-color="#F6631E"/>
<stop offset="1" stop-color="#6230D1"/>
</radialGradient>
</defs>
</svg>
